<?xml version="1.0" encoding="UTF-8"?>
<svg version="1.1" xmlns="http://www.w3.org/2000/svg" width="32" height="32">
<path d="M0 0 C1.125 2.1875 1.125 2.1875 2 5 C1.125 7.6875 1.125 7.6875 0 10 C0 10.66 0 11.32 0 12 C0.969375 12.53625 1.93875 13.0725 2.9375 13.625 C6.47084215 16.36514289 6.47084215 16.36514289 7 19.875 C7.20222179 23.60564342 6.58410961 26.58165821 5 30 C2.59454362 31.20272819 1.05003047 31.10071472 -1.625 31.0625 C-2.85089844 31.04896484 -2.85089844 31.04896484 -4.1015625 31.03515625 C-4.72804688 31.02355469 -5.35453125 31.01195312 -6 31 C-6.33 30.01 -6.66 29.02 -7 28 C-7.61875 27.690625 -8.2375 27.38125 -8.875 27.0625 C-11.50463296 25.74768352 -12.54513627 24.54601152 -14 22 C-14.1875 19.25 -14.1875 19.25 -14 17 C-13.01 16.67 -12.02 16.34 -11 16 C-10.34 16.33 -9.68 16.66 -9 17 C-8.67 14.69 -8.34 12.38 -8 10 C-8.99 9.67 -9.98 9.34 -11 9 C-11.625 6.1875 -11.625 6.1875 -12 3 C-8.61326653 -2.08010021 -5.54065966 -0.94086673 0 0 Z M-6 5 C-6 10.61 -6 16.22 -6 22 C-7.98 21.01 -9.96 20.02 -12 19 C-10.1831165 23.0552487 -10.1831165 23.0552487 -7 26 C-3.07404805 26.45994416 0.24757648 26.25080784 4 25 C4.73323796 22.98491642 4.73323796 22.98491642 5 21 C4.01 20.67 3.02 20.34 2 20 C1.3125 17.9375 1.3125 17.9375 1 16 C1 16.66 1 17.32 1 18 C0.34 18 -0.32 18 -1 18 C-1 17.01 -1 16.02 -1 15 C-1.66 15 -2.32 15 -3 15 C-3.66 11.7 -4.32 8.4 -5 5 C-5.33 5 -5.66 5 -6 5 Z " fill="#000000" transform="translate(20,1)"/>
</svg>
