<?xml version="1.0" encoding="UTF-8"?>
<svg version="1.1" xmlns="http://www.w3.org/2000/svg" width="100" height="100">
<path d="M0 0 C0.88733826 0.00404846 1.77467651 0.00809692 2.68890381 0.01226807 C4.08903717 0.00701111 4.08903717 0.00701111 5.51745605 0.00164795 C8.61374268 -0.00717989 11.70980222 -0.00131648 14.80609131 0.00543213 C16.95078577 0.00408578 19.09547993 0.00214551 21.24017334 -0.00036621 C25.73938904 -0.0033189 30.23852544 0.00098485 34.73773193 0.01031494 C40.51519075 0.02170952 46.29246377 0.01515083 52.06991577 0.00317001 C56.49987192 -0.00404466 60.92978376 -0.00176246 65.35974121 0.0034256 C67.49047874 0.00476318 69.62122024 0.00311059 71.75195312 -0.00153351 C74.72583732 -0.00659227 77.69941736 0.00110237 80.67327881 0.01226807 C81.56061707 0.0082196 82.44795532 0.00417114 83.36218262 0 C89.45256371 0.04252953 89.45256371 0.04252953 91.68109131 2.27105713 C91.86916719 5.01224935 91.93284921 7.6511686 91.90814209 10.39263916 C91.90838316 11.2453282 91.90862423 12.09801723 91.9088726 12.97654533 C91.9073766 15.74409192 91.89213081 18.51137106 91.87640381 21.27886963 C91.87346426 22.9845161 91.87142328 24.69016436 91.87030029 26.39581299 C91.85980272 32.72925517 91.83188043 39.06265876 91.80609131 45.39605713 C91.76484131 59.54480713 91.72359131 73.69355713 91.68109131 88.27105713 C58.68109131 88.27105713 25.68109131 88.27105713 -8.31890869 88.27105713 C-8.36015869 74.12230713 -8.40140869 59.97355713 -8.44390869 45.39605713 C-8.4621167 40.92446045 -8.48032471 36.45286377 -8.49908447 31.84576416 C-8.50811768 26.39581299 -8.50811768 26.39581299 -8.50979614 23.84646606 C-8.51287231 22.06154383 -8.51991669 20.27662581 -8.53005981 18.49172974 C-8.54463826 15.79195914 -8.54672275 13.09244305 -8.54595947 10.39263916 C-8.55315569 9.59415621 -8.56035191 8.79567326 -8.56776619 7.97299385 C-8.54060156 0.82580347 -7.01648696 0.04899659 0 0 Z M-4.31890869 6.27105713 C-4.31890869 8.91105713 -4.31890869 11.55105713 -4.31890869 14.27105713 C26.04109131 14.27105713 56.40109131 14.27105713 87.68109131 14.27105713 C87.68109131 11.63105713 87.68109131 8.99105713 87.68109131 6.27105713 C85.10543854 3.69540436 83.38052059 4.02674415 79.86987305 4 C79.0573407 4.00404846 78.24480835 4.00809692 77.40765381 4.01226807 C76.55226013 4.00876343 75.69686646 4.00525879 74.81555176 4.00164795 C71.97898316 3.99282236 69.14266258 3.99868268 66.30609131 4.00543213 C64.34075879 4.00408572 62.37542659 4.00214538 60.41009521 3.99963379 C56.28750442 3.9966814 52.16500018 4.00098385 48.04241943 4.01031494 C42.74922801 4.02170953 37.45623939 4.01515067 32.16305542 4.00317001 C28.10368309 3.9959545 24.04435911 3.99823792 19.98498535 4.0034256 C18.03287736 4.00476295 16.08076503 4.0031114 14.12866211 3.99846649 C11.40383216 3.99340633 8.67933395 4.00110425 5.95452881 4.01226807 C4.73573029 4.00619537 4.73573029 4.00619537 3.49230957 4 C-0.88079695 3.86107425 -0.88079695 3.86107425 -4.31890869 6.27105713 Z M-4.31890869 18.27105713 C-4.31890869 40.05105713 -4.31890869 61.83105713 -4.31890869 84.27105713 C26.04109131 84.27105713 56.40109131 84.27105713 87.68109131 84.27105713 C87.68109131 62.49105713 87.68109131 40.71105713 87.68109131 18.27105713 C57.32109131 18.27105713 26.96109131 18.27105713 -4.31890869 18.27105713 Z " fill="#191919" transform="translate(8.31890869140625,5.72894287109375)"/>
<path d="M0 0 C4.32504836 1.65863505 7.09418825 4.871041 10.25 8.125 C11.08144531 8.96998047 11.08144531 8.96998047 11.9296875 9.83203125 C13.29104485 11.21686028 14.64614859 12.60783204 16 14 C14.37849996 17.97314921 11.64417127 20.79300438 8.6875 23.8125 C8.21376953 24.32748047 7.74003906 24.84246094 7.25195312 25.37304688 C5.82421875 26.83203125 5.82421875 26.83203125 3 29 C0.14453125 28.82421875 0.14453125 28.82421875 -2 28 C-0.52278578 24.54798361 1.43794001 22.35038064 4.125 19.75 C4.84945312 19.04359375 5.57390625 18.3371875 6.3203125 17.609375 C6.87460937 17.07828125 7.42890625 16.5471875 8 16 C6.60005228 12.75240554 4.9554506 10.88379333 2.3125 8.5625 C0.421875 6.75 0.421875 6.75 -1 5 C-0.9375 2.0625 -0.9375 2.0625 0 0 Z " fill="#191919" transform="translate(29,39)"/>
<path d="M0 0 C9.9 0 19.8 0 30 0 C30 1.32 30 2.64 30 4 C20.1 4 10.2 4 0 4 C0 2.68 0 1.36 0 0 Z " fill="#191919" transform="translate(44,64)"/>
</svg>
